<?xml version="1.0" encoding="UTF-8"?> <svg xmlns="http://www.w3.org/2000/svg" width="194" height="35" viewBox="0 0 194 35" fill="none"> <path d="M0.198478 34.5331C0.0660398 34.5331 0 34.4507 0 34.2852L0.0496885 0.1985C0.0496885 0.0664086 0.132437 0 0.297898 0H5.80503C5.97049 0 6.05324 0.0664086 6.05324 0.1985L6.00353 13.6943H13.4461V0.1985C13.4461 0.0664086 13.5122 0 13.6446 0H19.1521C19.3172 0 19.4 0.0664086 19.4 0.1985L19.4994 34.2852C19.4994 34.4507 19.4166 34.5331 19.2512 34.5331H13.6943C13.5289 34.5331 13.4461 34.4507 13.4461 34.2852V19.6979H6.00353V34.2852C6.00353 34.4507 5.93746 34.5331 5.80503 34.5331H0.198478ZM23.7663 34.5331C23.6342 34.5331 23.5678 34.4507 23.5678 34.2852L23.6175 0.1985C23.6175 0.0664086 23.6835 0 23.816 0H39.743C39.8751 0 39.9411 0.0827268 39.9411 0.248188V5.80539C39.9411 5.93748 39.8751 6.00389 39.743 6.00389H29.5713V13.7441H39.743C39.8751 13.7441 39.9411 13.8101 39.9411 13.9425L39.9908 19.5491C39.9908 19.6812 39.9248 19.7476 39.7923 19.7476H29.5713V28.4305H39.7923C39.9248 28.4305 39.9908 28.5132 39.9908 28.6783V34.3346C39.9908 34.467 39.9248 34.5331 39.7923 34.5331H23.7663ZM65.2953 34.5331C65.1632 34.5331 65.0968 34.4507 65.0968 34.2852L65.1465 0.248188C65.1465 0.0827268 65.2292 0 65.3947 0H70.9018C71.0687 0 71.1486 0.0827268 71.1486 0.248188L71.0999 28.4305H81.3231C81.4864 28.4305 81.5699 28.5132 81.5699 28.6783V34.2852C81.5699 34.4507 81.4864 34.5331 81.3231 34.5331H65.2953ZM99.8783 34.5331C99.7463 34.5331 99.6802 34.4507 99.6802 34.2852L99.7289 0.1985C99.7289 0.0664086 99.8123 0 99.9757 0H105.485C105.649 0 105.732 0.0664086 105.732 0.1985L105.683 13.6943H113.126V0.1985C113.126 0.0664086 113.192 0 113.324 0H118.833C118.997 0 119.08 0.0664086 119.08 0.1985L119.178 34.2852C119.178 34.4507 119.098 34.5331 118.931 34.5331H113.372C113.209 34.5331 113.126 34.4507 113.126 34.2852V19.6979H105.683V34.2852C105.683 34.4507 105.617 34.5331 105.485 34.5331H99.8783ZM130.788 34.5331C130.656 34.5331 130.589 34.4507 130.589 34.2852L130.69 0.1985C130.69 0.0664086 130.756 0 130.888 0H140.416C142.3 0 143.986 0.455027 145.474 1.36472C146.965 2.2744 148.14 3.47329 148.999 4.96174C149.857 6.4502 150.288 8.07111 150.288 9.82409C150.288 11.2465 149.965 12.5695 149.322 13.7934C148.675 15.0173 147.907 16.0098 147.014 16.7707C147.973 17.7297 148.717 18.8379 149.246 20.0948C149.777 21.3518 150.042 22.6748 150.042 24.0642C150.042 25.9826 149.576 27.7356 148.651 29.3235C147.727 30.9113 146.475 32.1763 144.904 33.119C143.333 34.0617 141.588 34.5331 139.669 34.5331H130.788ZM42.2235 34.2852L48.3762 0.1985C48.4092 0.0664086 48.4919 0 48.624 0H55.8184C55.9509 0 56.0336 0.0664086 56.0666 0.1985L61.9711 34.2852C62.0041 34.4507 61.9381 34.5331 61.7726 34.5331H56.2651C56.1327 34.5331 56.0499 34.4507 56.0169 34.2852L55.4712 30.6632H48.7234L48.1777 34.2852C48.1446 34.4507 48.0619 34.5331 47.9295 34.5331H42.422C42.2899 34.5331 42.2235 34.4507 42.2235 34.2852ZM150.935 34.2852L157.088 0.1985C157.119 0.0664086 157.202 0 157.334 0H164.526C164.662 0 164.742 0.0664086 164.777 0.1985L170.679 34.2852C170.714 34.4507 170.648 34.5331 170.481 34.5331H164.975C164.843 34.5331 164.759 34.4507 164.728 34.2852L164.182 30.6632H157.432L156.886 34.2852C156.855 34.4507 156.771 34.5331 156.639 34.5331H151.133C151.001 34.5331 150.935 34.4507 150.935 34.2852ZM174.006 34.5331C173.874 34.5331 173.808 34.4507 173.808 34.2852L173.905 0.1985C173.905 0.0664086 173.971 0 174.103 0H184.128C185.911 0 187.559 0.43834 189.064 1.31501C190.569 2.19167 191.768 3.36588 192.662 4.83765C193.555 6.30977 194 7.97169 194 9.82409C194 11.048 193.819 12.1478 193.454 13.1236C193.089 14.0997 192.662 14.9263 192.165 15.6044C191.668 16.2826 191.223 16.787 190.826 17.1179C192.613 19.1024 193.503 21.4345 193.503 24.1139L193.555 34.2852C193.555 34.4507 193.472 34.5331 193.305 34.5331H187.698C187.566 34.5331 187.5 34.4837 187.5 34.3843V24.1139C187.5 22.923 187.079 21.8892 186.234 21.0129C185.393 20.1362 184.357 19.6979 183.134 19.6979H179.859L179.811 34.2852C179.811 34.4507 179.745 34.5331 179.613 34.5331H174.006ZM84.7957 34.5331C84.6636 34.5331 84.5975 34.4507 84.5975 34.2852V6.00389H78.1459C77.9791 6.00389 77.8991 5.92116 77.8991 5.7557L77.9478 0.1985C77.9478 0.0664086 78.0138 0 78.1459 0H97.0002C97.167 0 97.247 0.0664086 97.247 0.1985V5.7557C97.247 5.92116 97.1809 6.00389 97.0488 6.00389H90.5486L90.6007 34.2852C90.6007 34.4507 90.5347 34.5331 90.4026 34.5331H84.7957ZM136.593 28.4802H139.669C140.861 28.4802 141.887 28.0419 142.745 27.1652C143.607 26.2885 144.038 25.2551 144.038 24.0642C144.038 22.8733 143.607 21.8478 142.745 20.9879C141.887 20.1279 140.861 19.6979 139.669 19.6979H136.645L136.593 28.4802ZM49.7158 25.3542H54.4788L52.4446 11.412L52.147 9.57624L51.9485 11.412L49.7158 25.3542ZM158.426 25.3542H163.188L161.155 11.412L160.856 9.57624L160.658 11.412L158.426 25.3542ZM179.859 13.7441H184.128C185.153 13.7441 186.061 13.3634 186.857 12.6029C187.649 11.842 188.045 10.9159 188.045 9.82409C188.045 8.76563 187.66 7.85593 186.881 7.09536C186.102 6.33445 185.185 5.95418 184.128 5.95418H179.859V13.7441ZM136.645 13.6943H140.416C141.574 13.6943 142.505 13.289 143.218 12.4788C143.931 11.6681 144.285 10.7835 144.285 9.82409C144.285 8.76563 143.903 7.84794 143.145 7.07035C142.384 6.2931 141.473 5.90447 140.416 5.90447H136.645V13.6943Z" fill="#8AC9B6"></path> </svg> 